#!OML:ASF F:\VICON\USERDATA\INSTALL\rory3\rory3.ASF
:FULLY-SPECIFIED
:DEGREES
1144
root -3.2014 17.9998 -2.31733 3.03369 -34.634 18.242
lowerback 20.3245 0.187471 1.43695
upperback 5.08332 0.662748 3.46433
thorax -5.87335 0.264923 2.74612
lowerneck -24.4766 -0.489803 -9.31028
upperneck 27.3742 3.30236 -1.08683
head 13.2248 0.248059 1.71664
rclavicle -5.56597e-014 -2.22639e-014
rhumerus -21.6197 21.8024 -85.3342
rradius 49.9497
rwrist 23.3187
rhand -21.5837 3.82756
rfingers 7.12502
rthumb 4.81074 -26.0978
lclavicle -5.56597e-014 -2.22639e-014
lhumerus -25.8379 -19.2696 95.9143
lradius 53.2345
lwrist -12.4721
lhand -22.971 12.8826
lfingers 7.12502
lthumb 3.47106 42.8341
rfemur -38.0983 -8.82903 9.66579
rtibia 35.4667
rfoot -12.5449 -9.47017
rtoes 15.3488
lfemur -54.6149 26.1155 -27.5647
ltibia 91.5139
lfoot 14.3625 -27.2376
ltoes -29.186
1145
root -3.26377 18.0405 -2.28291 3.11948 -34.633 18.1811
lowerback 20.1248 0.214261 1.38067
upperback 4.9876 0.686657 3.47157
thorax -5.87375 0.278797 2.77925
lowerneck -24.5015 -0.37999 -9.26436
upperneck 27.4322 3.50053 -1.25188
head 13.2513 0.311674 1.68044
rclavicle -3.81667e-014 2.8625e-014
rhumerus -21.6785 21.6949 -85.385
rradius 49.2183
rwrist 22.8044
rhand -20.7895 3.52874
rfingers 7.12502
rthumb 5.57755 -26.3779
lclavicle -3.81667e-014 2.8625e-014
lhumerus -25.9921 -19.0191 95.8995
lradius 53.2366
lwrist -12.3459
lhand -23.4085 13.0728
lfingers 7.12502
lthumb 3.04861 43.0308
rfemur -37.4707 -8.9054 9.81676
rtibia 34.6875
rfoot -12.4618 -9.35575
rtoes 15.5383
lfemur -54.2844 25.4621 -27.0871
ltibia 91.1296
lfoot 15.3205 -26.7907
ltoes -28.9127
1146
root -3.32437 18.0697 -2.25274 3.28122 -34.6132 17.9148
lowerback 20.011 0.226214 1.5238
upperback 4.8681 0.736489 3.5018
thorax -5.94349 0.30297 2.71791
lowerneck -24.4893 -0.294016 -9.25216
upperneck 27.5688 3.65907 -1.36093
head 13.303 0.358768 1.66523
rclavicle -1.59028e-015 -3.81667e-014
rhumerus -21.846 21.6094 -85.4567
rradius 48.5986
rwrist 22.0947
rhand -20.3017 3.50697
rfingers 7.12502
rthumb 6.04857 -26.3867
lclavicle -1.59028e-015 -3.81667e-014
lhumerus -26.1626 -18.7357 95.8388
lradius 53.2871
lwrist -12.2132
lhand -23.8604 13.2331
lfingers 7.12502
lthumb 2.61221 43.1968
rfemur -36.8297 -8.98522 10.191
rtibia 33.8858
rfoot -12.2577 -9.27082
rtoes 15.1226
lfemur -53.9568 24.8741 -26.4047
ltibia 90.7913
lfoot 15.795 -26.8006
ltoes -28.9669
1147
root -3.38312 18.099 -2.2171 3.33636 -34.6371 17.7894
lowerback 19.851 0.306249 1.61807
upperback 4.80077 0.855513 3.45984
thorax -5.93422 0.360559 2.58875
lowerneck -24.546 -0.254791 -9.16734
upperneck 27.6962 3.72191 -1.44001
head 13.369 0.376361 1.63341
rclavicle 4.45278e-014 -2.54444e-014
rhumerus -22.0635 21.3819 -85.4566
rradius 48.1573
rwrist 21.2222
rhand -20.3815 3.59144
rfingers 7.12502
rthumb 5.97155 -26.3044
lclavicle 4.45278e-014 -2.54444e-014
lhumerus -26.2833 -18.6846 95.7504
lradius 53.3911
lwrist -12.1513
lhand -24.3837 13.3626
lfingers 7.12502
lthumb 2.10683 43.332
rfemur -36.1756 -9.05649 10.4071
rtibia 33.1162
rfoot -12.1369 -9.15355
rtoes 15.2165
lfemur -53.49 24.2665 -25.9117
ltibia 90.4169
lfoot 16.6671 -26.4995
ltoes -28.3472
1148
root -3.44327 18.1353 -2.1718 3.24769 -34.7822 17.8641
lowerback 19.5896 0.46652 1.56333
upperback 4.80488 1.03701 3.34422
thorax -5.79701 0.449727 2.44974
lowerneck -24.6339 -0.207518 -8.98625
upperneck 27.7314 3.75891 -1.52274
head 13.4047 0.397478 1.57915
rclavicle 3.18055e-015 6.36111e-015
rhumerus -22.1519 20.9846 -85.4137
rradius 47.6217
rwrist 20.4336
rhand -20.9599 3.55435
rfingers 7.12502
rthumb 5.41306 -26.3565
lclavicle 3.18055e-015 6.36111e-015
lhumerus -26.3377 -18.8277 95.6531
lradius 53.4663
lwrist -12.174
lhand -24.6793 13.3884
lfingers 7.12502
lthumb 1.82131 43.3604
rfemur -35.4996 -9.09125 10.4192
rtibia 32.3799
rfoot -12.0045 -9.00002
rtoes 14.7626
lfemur -52.8613 23.6345 -25.6093
ltibia 89.9979
lfoot 16.86 -26.2901
ltoes -28.0207
1149
root -3.50008 18.1632 -2.14734 3.38112 -34.6558 17.8422
lowerback 19.3673 0.522452 1.45429
upperback 4.71322 1.08717 3.32873
thorax -5.78183 0.477202 2.48304
lowerneck -24.7973 -0.139934 -8.90527
upperneck 27.8633 3.87634 -1.59434
head 13.4922 0.437848 1.56168
rclavicle -6.36111e-015 -3.18055e-015
rhumerus -22.1871 20.6619 -85.3604
rradius 47.0743
rwrist 19.7388
rhand -21.3528 3.40258
rfingers 7.12502
rthumb 5.03371 -26.5176
lclavicle -6.36111e-015 -3.18055e-015
lhumerus -26.3953 -18.7025 95.5681
lradius 53.5477
lwrist -12.3823
lhand -24.9057 13.4516
lfingers 7.12502
lthumb 1.60268 43.4253
rfemur -35.039 -9.18416 10.5324
rtibia 31.7411
rfoot -11.9109 -9.02031
rtoes 14.2498
lfemur -52.6528 22.7405 -25.2599
ltibia 89.6775
lfoot 16.9209 -26.257
ltoes -28.9205
1150
root -3.55685 18.1906 -2.11268 3.46101 -34.5872 17.7358
lowerback 19.2004 0.552399 1.4589
upperback 4.62812 1.12869 3.34877
thorax -5.78687 0.498757 2.49213
lowerneck -24.964 -0.0816153 -8.9054
upperneck 28.0901 4.02671 -1.69046
head 13.6205 0.474252 1.55467
rclavicle -6.36111e-014 1.59028e-014
rhumerus -22.3036 20.4406 -85.2727
rradius 46.5738
rwrist 19.0728
rhand -21.4226 3.24332
rfingers 7.12502
rthumb 4.96629 -26.6785
lclavicle -6.36111e-014 1.59028e-014
lhumerus -26.5519 -18.2272 95.5301
lradius 53.682
lwrist -12.8462
lhand -25.2741 13.6769
lfingers 7.12502
lthumb 1.24681 43.653
rfemur -34.4687 -9.28187 10.698
rtibia 31.1175
rfoot -11.8625 -8.93089
rtoes 14.1259
lfemur -52.2921 21.8833 -24.8501
ltibia 89.3971
lfoot 16.3986 -26.2904
ltoes -30.7196
1151
root -3.61337 18.2101 -2.08084 3.51941 -34.5128 17.6207
lowerback 19.0688 0.593697 1.47603
upperback 4.55265 1.18608 3.33985
thorax -5.79982 0.52765 2.45928
lowerneck -25.0938 -0.0405844 -8.8309
upperneck 28.2186 4.12331 -1.82006
head 13.7046 0.496206 1.51106
rclavicle 6.20208e-014 -2.22639e-014
rhumerus -22.3954 20.1194 -85.178
rradius 46.1225
rwrist 18.3621
rhand -21.313 3.21271
rfingers 7.12502
rthumb 5.07215 -26.7066
lclavicle 6.20208e-014 -2.22639e-014
lhumerus -26.7417 -17.8001 95.429
lradius 53.946
lwrist -13.1666
lhand -25.4932 14.1261
lfingers 7.12502
lthumb 1.03519 44.1033
rfemur -33.8896 -9.31915 10.8451
rtibia 30.5244
rfoot -11.9473 -8.8845
rtoes 14.3238
lfemur -51.9356 21.0312 -24.4211
ltibia 89.1858
lfoot 15.5174 -26.2957
ltoes -32.3822
1152
root -3.66985 18.2331 -2.04727 3.99021 -34.4995 16.8864
lowerback 18.8461 0.621108 2.05074
upperback 4.47296 1.3323 3.41849
thorax -5.76047 0.592365 2.1824
lowerneck -25.1839 0.0102881 -8.7253
upperneck 28.2889 4.20031 -1.91064
head 13.7553 0.522807 1.47343
rclavicle -1.11319e-014 5.40694e-014
rhumerus -22.5422 19.7069 -85.0886
rradius 45.7713
rwrist 17.6822
rhand -21.1073 3.11707
rfingers 7.12502
rthumb 5.27074 -26.7974
lclavicle -1.11319e-014 5.40694e-014
lhumerus -26.8013 -17.4813 95.202
lradius 54.286
lwrist -12.5211
lhand -24.3283 14.3857
lfingers 7.12502
lthumb 2.16029 44.3545
rfemur -33.3447 -9.0753 11.4937
rtibia 29.9073
rfoot -12.2449 -8.97212
rtoes 15.3362
lfemur -51.7398 20.2753 -23.3719
ltibia 89.0533
lfoot 14.7374 -26.3333
ltoes -33.1641
1153
root -3.72655 18.2555 -2.0105 4.77739 -34.4924 15.9231
lowerback 18.4357 0.653544 2.77015
upperback 4.34162 1.50917 3.58339
thorax -5.67248 0.670951 1.91109
lowerneck -25.3524 0.0905506 -8.6132
upperneck 28.4711 4.3471 -2.04141
head 13.8699 0.566779 1.43329
rclavicle -7.4743e-014 -4.77083e-014
rhumerus -22.779 19.2673 -84.9264
rradius 45.5477
rwrist 17.023
rhand -21.098 2.77246
rfingers 7.12502
rthumb 5.2797 -27.1418
lclavicle -7.4743e-014 -4.77083e-014
lhumerus -26.8507 -16.9414 94.9826
lradius 54.7632
lwrist -11.3515
lhand -21.8169 14.5283
lfingers 7.12502
lthumb 4.58554 44.4586
rfemur -32.9798 -8.83298 12.3898
rtibia 29.2388
rfoot -12.4118 -9.10952
rtoes 15.8707
lfemur -51.7818 19.4863 -22.1659
ltibia 88.9611
lfoot 13.9771 -26.5422
ltoes -33.3047
